<svg width="31px" height="23px" viewBox="0 3 31 23" version="1.1" xmlns="http://www.w3.org/2000/svg" xmlns:xlink="http://www.w3.org/1999/xlink">
    <!-- Generator: Sketch 42 (36781) - http://www.bohemiancoding.com/sketch -->
    <desc>Created with Sketch.</desc>
    <defs></defs>
    <g id="Group-6" stroke="none" stroke-width="1" fill="none" fill-rule="evenodd" transform="translate(0.000000, 3.000000)">
        <path d="M29.167,9.625 L21.257,1.714 C20.142,0.6 18.39,0.577 17.207,1.573 L25.775,10.142 C26.667,11.033 26.667,12.479 25.775,13.37 L17.207,21.939 C18.39,22.935 20.142,22.912 21.257,21.798 L29.167,13.888 C30.345,12.71 30.345,10.802 29.167,9.625" id="Fill-16" fill="#FFFFFF" opacity="0.54"></path>
        <path d="M1.1797,13.6387 L9.5877,22.0467 C10.6277,23.0867 12.3137,23.0867 13.3527,22.0467 L21.7617,13.6387 C22.8007,12.5987 22.8007,10.9127 21.7617,9.8737 L13.3527,1.4647 C12.3137,0.4257 10.6277,0.4257 9.5877,1.4647 L1.1797,9.8737 C0.1397,10.9127 0.1397,12.5987 1.1797,13.6387" id="Fill-18" fill="#FFFFFF"></path>
    </g>
</svg>